<?xml version="1.0" encoding="UTF-8" standalone="no"?>
<svg width="385px" height="297px" viewBox="0 0 385 297" version="1.1" xmlns="http://www.w3.org/2000/svg" xmlns:xlink="http://www.w3.org/1999/xlink">
    <!-- Generator: Sketch 43.2 (39069) - http://www.bohemiancoding.com/sketch -->
    <title>greg-logo</title>
    <desc>Created with Sketch.</desc>
    <defs></defs>
    <g id="Page-1" stroke="none" stroke-width="1" fill="none" fill-rule="evenodd">
        <g id="b-4" transform="translate(-83.000000, -82.000000)" fill-rule="nonzero" fill="#000000">
            <path d="M236.923029,330 L144.007094,330 C131.30013,330 121,319.703097 121,306.996854 L121,232.5 C121,229.738576 123.238576,227.5 126,227.5 C128.761424,227.5 131,229.738576 131,232.5 L131,288 L294.002994,288 C296.764418,288 299.002994,290.238576 299.002994,293 C299.002994,295.761424 296.764418,298 294.002994,298 L131,298 L131,306.996854 C131,314.179548 136.822276,320 144.007094,320 L309.656056,320 C312.41748,320 314.656056,322.238576 314.656056,325 C314.656056,327.761424 312.41748,330 309.656056,330 L246.927233,330 C247.073099,335.172782 247.025419,340.805376 246.645791,346.154368 C246.018154,354.997849 244.66427,361.345113 241.815469,365.048554 C241.006669,366.099994 240.139879,367.083141 239.219067,368 L313,368 C315.761424,368 318,370.238576 318,373 C318,375.761424 315.761424,378 313,378 L215.325784,378 C213.236766,378.152506 211.216365,378.157054 209.308025,378.047082 C208.867083,378.021672 208.537078,377.994438 208.328925,377.972527 C205.582674,377.683448 203.590743,375.222827 203.879822,372.476576 C204.153113,369.880311 206.367226,367.958222 208.928678,368.000271 C208.9462,368.000091 208.963744,368 208.981308,368 L214.843556,368 C217.980204,367.74486 221.318866,367.067476 224.506409,365.803243 C228.346006,364.280396 231.517707,362.034425 233.889229,358.951446 C235.103806,357.372497 236.18382,352.309187 236.670882,345.446431 C237.025977,340.443098 237.06915,335.076668 236.928242,330.177757 C236.926516,330.117777 236.924778,330.058521 236.923029,330 Z M213.5,140 C210.738576,140 208.5,137.761424 208.5,135 C208.5,132.238576 210.738576,130 213.5,130 L377.996761,130 C390.701725,130 401,140.294732 401,152.999068 L401,177 C401,179.761424 398.761424,182 396,182 C393.238576,182 391,179.761424 391,177 L391,152.999068 C391,145.81835 385.179648,140 377.996761,140 L213.5,140 Z M409.446608,226.441218 C408.763798,226.062686 408.233939,225.748973 407.875641,225.525063 C405.89393,224.745211 403.556868,225.046409 401.810684,226.511631 L397.21765,230.365645 L404.931101,239.558179 L409.524136,235.704165 C412.065479,233.571725 412.397237,229.787287 410.266909,227.248461 C410.015099,226.948366 409.74006,226.679144 409.446608,226.441218 Z M421.668914,231.340212 C421.600712,235.824416 419.657831,240.255058 415.952012,243.364609 L343.184253,304.424008 C336.416057,310.1032 326.319737,309.223806 320.639709,302.454611 C314.958431,295.683928 315.84407,285.592113 322.61505,279.910586 L395.382808,218.851187 C397.896512,216.741939 400.869288,215.537366 403.904392,215.203206 C403.662492,213.888756 403.462933,212.598763 403.31464,211.348043 C402.529043,204.722219 403.044945,200.020522 406.515558,197.108332 C418.914097,186.704722 432.695253,183.977476 446.160605,187.210083 C455.722946,189.505701 465.227153,195.262686 466.876057,199.434774 C467.207746,200.27402 467.392092,200.939818 467.392171,201.874202 C467.392391,204.469438 465.51165,206.713122 462.828966,207.034642 C462.211296,207.10867 461.693503,207.07379 461.172191,206.981848 C460.917474,206.936925 460.694723,206.8834 460.446221,206.814894 C460.333243,206.783749 459.848664,206.641338 459.738116,206.611553 C459.189921,206.463848 458.8654,206.452628 458.437643,206.594836 C457.483637,206.911996 456.257506,207.894265 454.769077,209.945639 C452.629522,212.894405 451.141795,215.343542 448.510366,220.01282 C445.710068,224.981743 444.908352,226.247095 443.237953,227.648726 C439.295209,230.957081 434.47684,232.422996 429.15262,232.350453 C426.687019,232.31686 424.184127,231.961025 421.668914,231.340212 Z M397.270656,245.986055 L389.557205,236.793521 L329.042926,287.571031 C326.501583,289.703471 326.169825,293.487909 328.300153,296.026735 C330.428753,298.563501 334.217245,298.894149 336.756377,296.763564 L397.270656,245.986055 Z M183,175.270973 L183,178.899496 C183.001481,178.96964 183.001474,179.039596 183,179.109327 L183,187 C183,187.168217 182.991693,187.334493 182.975467,187.498442 C183.141486,189.161189 182.470499,190.869316 181.048554,191.96312 L155.085319,211.934839 C154.647649,212.278497 154.151217,212.55071 153.613592,212.733912 C153.070961,212.918397 152.510777,213.005546 151.953616,213 L127.046384,213 C126.489223,213.005546 125.929039,212.918397 125.390564,212.735327 C124.848783,212.55071 124.352351,212.278497 123.914681,211.934839 L97.9514462,191.96312 C96.5295006,190.869316 95.8585135,189.161189 96.0245332,187.498442 C96.008307,187.334493 96,187.168217 96,187 L96,180.101395 C95.9987711,180.037657 95.9987648,179.973718 96,179.909605 L96,174.399822 C95.7213566,174.456347 95.434063,174.489795 95.1401318,174.498036 C92.3797928,174.575429 90.0793568,172.400471 90.0019641,169.640132 C89.999028,169.53541 89.999028,169.53541 89.985105,169.037481 C89.9660548,168.355337 89.9660548,168.355337 89.9374824,167.329541 C89.8897724,165.615388 89.8369905,163.711038 89.7803162,161.656395 C85.4468246,158.96153 83,152.547927 83,145.5 C83,138.926821 85.128291,132.905387 88.9304582,129.937859 C88.6552795,119.20705 88.5,112.344069 88.5,110.5 C88.5,106.649292 91.2846065,100.673991 95.4174207,94.236338 C100.219959,86.7554608 103.917011,82.5 108,82.5 C110.535072,82.5 112.508989,83.7873373 113.92265,85.7150567 C114.751336,86.8450827 115.36671,88.1637422 115.868416,89.6688612 C116.214408,90.7068368 116.486244,91.7798713 116.699778,92.8475443 C116.776914,93.2332216 116.837802,93.5731087 116.883814,93.8557266 C122.536784,93.2732424 129.198884,93 137,93 C172.083761,93 188,99.8386848 188,114.5 C188,114.700208 187.994777,114.899269 187.984391,115.097171 C190.373888,115.573837 192.117976,117.740568 191.993884,120.247222 L191.350342,133.246784 C193.106937,136.450223 194,140.821405 194,145.5 C194,151.226983 192.661857,156.493344 190.039731,159.721126 L189.493884,170.747222 C189.357347,173.505268 187.010824,175.630421 184.252778,175.493884 C183.817267,175.472324 183.397537,175.39566 183,175.270973 Z M106.723821,95.4812332 C106.817497,95.4592506 106.911601,95.4374233 107.006134,95.415751 C106.994164,95.3439851 106.979793,95.2613801 106.962991,95.1692411 C106.883762,95.2717021 106.804021,95.3757234 106.723821,95.4812332 Z M173,130.234288 C163.758458,133.945416 151.016909,136 137,136 C124.969691,136 114.244468,134.43071 106,131.536933 L106,175.869922 L127.476405,180 L151.43056,180 L173,175.022437 L173,130.234288 Z M150.29939,203 L173,185.537993 L173,185.285255 L153.230825,189.847373 C153.014437,189.902148 152.792428,189.942815 152.565834,189.968337 C152.339304,189.99442 152.113836,190.004716 151.890673,190 L127.101394,190 C126.911058,190.00367 126.718917,189.996436 126.525711,189.977798 C126.332462,189.959615 126.142412,189.930433 125.956194,189.890884 L106.892948,186.224875 L128.70061,203 L150.29939,203 Z M312.476576,368.027473 C315.222827,367.738394 317.683448,369.730325 317.972527,372.476576 C318.261606,375.222827 316.269675,377.683448 313.523424,377.972527 C313.315271,377.994438 312.985266,378.021672 312.544324,378.047082 C306.860715,378.374612 300.183106,377.68632 293.659162,375.098816 C288.228988,372.945119 283.577348,369.651162 280.03688,365.048554 C277.188079,361.345113 275.834195,354.997849 275.206558,346.154368 C274.824244,340.76752 274.778592,335.093042 274.928242,329.890243 C274.944929,329.310086 274.962862,328.790122 274.980878,328.337073 C274.991894,328.06007 275.000666,327.863607 275.006034,327.754431 C275.141658,324.99634 277.487477,322.87041 280.245569,323.006034 C283.00366,323.141658 285.12959,325.487477 284.993966,328.245569 C284.990106,328.32406 284.982728,328.489307 284.972981,328.734429 C284.956391,329.151589 284.939719,329.635 284.924108,330.177757 C284.783199,335.076668 284.826372,340.443098 285.181467,345.446431 C285.668529,352.309187 286.748544,357.372497 287.96312,358.951446 C290.334642,362.034425 293.506343,364.280396 297.34594,365.803243 C302.296789,367.766832 307.612196,368.314715 311.969008,368.063645 C312.248604,368.047533 312.421753,368.033244 312.476576,368.027473 Z M418.38574,219.693155 C422.203702,221.323286 425.965367,222.306099 429.288858,222.351382 C432.357872,222.393197 434.846217,221.636156 436.810077,219.988281 C437.087975,219.755097 437.892723,218.484962 439.798568,215.103179 C442.607353,210.119195 444.248832,207.416949 446.675191,204.072906 C448.085932,202.128602 449.530168,200.595284 450.999597,199.430986 C448.776649,198.401092 446.349697,197.539606 443.826246,196.933805 C433.437268,194.439738 423.031228,196.450026 413.262471,204.503419 C413.199009,204.717332 413.138149,205.030942 413.094366,205.429957 C412.964065,206.617466 413.01696,208.246614 413.245083,210.17063 C413.435419,211.775947 413.737608,213.515526 414.12101,215.308269 C414.316384,216.221816 414.523086,217.104105 414.731799,217.934058 C415.842461,218.533045 417.072018,219.132244 418.38574,219.693155 Z" id="greg-logo"></path>
        </g>
    </g>
</svg>